<svg xmlns="http://www.w3.org/2000/svg" viewBox="0 0 512 512" fill="none">
  <!-- Layer 1: Leftmost outer paper flap -->
  <path d="M142 128 L162 196 C130 216 100 252 100 310 C100 395 168 450 255 450 C305 450 350 430 385 395 L385 365 C345 405 295 425 250 425 C175 425 125 375 125 310 C125 265 150 230 178 210 L142 128 Z" fill="#6EA9DB"/>

  <!-- Layer 2: Middle paper wave -->
  <path d="M188 142 L206 208 C180 230 156 268 156 312 C156 368 200 405 260 405 L345 405 L345 380 L260 380 C215 380 180 352 180 312 C180 275 200 245 222 225 L188 142 Z" fill="#6EA9DB"/>

  <!-- Layer 3: Top paper curl/wave & main inner loop of C -->
  <path d="M246 112 C285 96 332 112 384 168 L360 192 C318 148 282 138 252 148 L268 212 C295 196 328 202 360 236 L338 258 C310 230 286 226 264 238 L246 112 Z" fill="#6EA9DB"/>

  <!-- Main C Lower Bar Body connecting to pencil -->
  <path d="M190 280 C205 240 245 205 305 205 C355 205 385 235 385 235 L360 260 C360 260 335 235 295 235 C245 235 215 270 205 310 C200 330 205 360 240 375 C265 385 305 385 345 385 L345 345 L245 345 C230 345 220 335 220 320 C220 305 230 295 245 295 L345 295 L345 375 L245 375" fill="#6EA9DB"/>
  
  <!-- Pencil Tip Body and Lead (Bottom Right) -->
  <polygon points="355,305 425,340 355,375" fill="#1E5884"/>
  <polygon points="390,323 425,340 390,357" fill="#133D5C"/>
</svg>
